<svg width="462" height="285" viewBox="0 0 462 285" fill="none" xmlns="http://www.w3.org/2000/svg">
<rect x="0.983643" y="0.938416" width="460.408" height="283.328" rx="17" fill="#393939"/>
<text fill="white" xml:space="preserve" style="white-space: pre" font-family="Inter" font-size="32" letter-spacing="0em"><tspan x="22" y="42.1364">Contacts</tspan></text>
<text fill="white" xml:space="preserve" style="white-space: pre" font-family="Inter" font-size="24" letter-spacing="0em"><tspan x="81" y="105.227">21343-3423523-234234@xen</tspan></text>
<text fill="white" xml:space="preserve" style="white-space: pre" font-family="Inter" font-size="24" letter-spacing="0em"><tspan x="81.0911" y="178.313">xenon@xmail.com</tspan></text>
<text fill="white" xml:space="preserve" style="white-space: pre" font-family="Inter" font-size="24" letter-spacing="0em"><tspan x="81" y="237.227">Next to the famous xen&#x2019;s </tspan><tspan x="81" y="266.227">gameshop</tspan></text>
<mask id="mask0_8_77" style="mask-type:alpha" maskUnits="userSpaceOnUse" x="25" y="75" width="41" height="42">
<rect x="25.4375" y="75.9865" width="40.4754" height="40.4754" fill="#D9D9D9"/>
</mask>
<g mask="url(#mask0_8_77)">
<path d="M58.7665 111.192C55.5762 111.192 52.3087 110.412 48.9639 108.852C45.619 107.292 42.5271 105.078 39.6882 102.211C36.8212 99.3723 34.6077 96.284 33.0477 92.9462C31.4878 89.6083 30.7078 86.3346 30.7078 83.1249C30.7078 82.5962 30.8864 82.1527 31.2438 81.7943C31.6012 81.436 32.0479 81.2568 32.584 81.2568H38.3391C38.7326 81.2568 39.0664 81.3938 39.3404 81.6679C39.6145 81.9419 39.8077 82.2897 39.9201 82.7114L41.0555 87.9243C41.0997 88.2998 41.0866 88.6492 41.0163 88.9724C40.9461 89.2956 40.8023 89.5658 40.5851 89.783L36.4418 93.9897C37.1726 95.2264 37.9412 96.374 38.7475 97.4325C39.5539 98.491 40.4436 99.4937 41.4169 100.44C42.4428 101.509 43.5285 102.483 44.6739 103.363C45.8193 104.244 47.0244 105.026 48.2893 105.711L52.3176 101.579C52.5834 101.284 52.8835 101.083 53.218 100.978C53.5525 100.873 53.8842 100.848 54.213 100.904L59.1612 101.977C59.5867 102.077 59.94 102.298 60.2211 102.641C60.5022 102.984 60.6427 103.368 60.6427 103.792V109.316C60.6427 109.852 60.464 110.298 60.1066 110.656C59.7493 111.013 59.3025 111.192 58.7665 111.192ZM35.2191 91.7762L38.6342 88.3189L37.6434 83.6811H33.1532C33.1953 84.8476 33.378 86.0878 33.7013 87.4019C34.0245 88.7159 34.5304 90.174 35.2191 91.7762ZM50.566 106.87C51.6903 107.404 52.9294 107.84 54.2832 108.177C55.6371 108.514 56.9488 108.711 58.2184 108.767V104.256L53.9179 103.35L50.566 106.87Z" fill="white"/>
</g>
<mask id="mask1_8_77" style="mask-type:alpha" maskUnits="userSpaceOnUse" x="25" y="149" width="41" height="41">
<rect x="25.4375" y="149.348" width="40.4754" height="40.4754" fill="#D9D9D9"/>
</mask>
<g mask="url(#mask1_8_77)">
<path d="M31.4455 182.888C30.7999 182.888 30.2345 182.645 29.7492 182.16C29.2639 181.675 29.0212 181.109 29.0212 180.464V158.708C29.0212 158.063 29.2639 157.497 29.7492 157.012C30.2345 156.526 30.7999 156.284 31.4455 156.284H59.9048C60.5504 156.284 61.1159 156.526 61.6012 157.012C62.0865 157.497 62.3291 158.063 62.3291 158.708V180.464C62.3291 181.109 62.0865 181.675 61.6012 182.16C61.1159 182.645 60.5504 182.888 59.9048 182.888H31.4455ZM59.9048 160.922L46.3287 169.818C46.2163 169.874 46.1109 169.923 46.0125 169.965C45.9141 170.008 45.8017 170.029 45.6752 170.029C45.5487 170.029 45.4363 170.008 45.3379 169.965C45.2395 169.923 45.1411 169.874 45.0428 169.818L31.4455 160.922V180.464H59.9048V160.922ZM45.6752 167.836L59.7151 158.708H31.6774L45.6752 167.836ZM31.4455 160.922V161.196V159.627V159.649V158.708V159.636V159.608V161.199V160.923V180.464V160.922Z" fill="white"/>
</g>
<mask id="mask2_8_77" style="mask-type:alpha" maskUnits="userSpaceOnUse" x="25" y="222" width="41" height="42">
<rect x="25.4375" y="222.71" width="40.4754" height="40.4754" fill="#D9D9D9"/>
</mask>
<g mask="url(#mask2_8_77)">
<path d="M45.6753 256.418C49.3715 253.031 52.105 249.96 53.8758 247.206C55.6466 244.451 56.532 242.027 56.532 239.933C56.532 236.65 55.4868 233.96 53.3966 231.863C51.3063 229.766 48.7315 228.718 45.6722 228.718C42.6128 228.718 40.039 229.766 37.9509 231.863C35.8627 233.96 34.8186 236.65 34.8186 239.933C34.8186 242.027 35.7251 244.451 37.538 247.206C39.351 249.96 42.0634 253.031 45.6753 256.418ZM45.6647 258.779C45.3766 258.779 45.0906 258.73 44.8066 258.632C44.5227 258.533 44.2711 258.379 44.052 258.168C43.0542 257.283 41.8842 256.179 40.5421 254.858C39.1999 253.537 37.9245 252.076 36.7159 250.473C35.5072 248.871 34.4848 247.171 33.6486 245.372C32.8124 243.573 32.3943 241.76 32.3943 239.933C32.3943 235.776 33.7294 232.464 36.3997 229.996C39.0699 227.528 42.1618 226.294 45.6753 226.294C49.1888 226.294 52.2806 227.528 54.9509 229.996C57.6211 232.464 58.9563 235.776 58.9563 239.933C58.9563 241.76 58.5382 243.573 57.702 245.372C56.8657 247.171 55.8433 248.871 54.6347 250.473C53.426 252.076 52.1506 253.537 50.8085 254.858C49.4663 256.179 48.2963 257.283 47.2985 258.168C47.0794 258.379 46.8244 258.533 46.5334 258.632C46.2424 258.73 45.9528 258.779 45.6647 258.779ZM45.68 242.463C46.4779 242.463 47.1615 242.18 47.7307 241.615C48.2999 241.05 48.5844 240.368 48.5844 239.57C48.5844 238.772 48.2983 238.088 47.726 237.519C47.1537 236.95 46.4686 236.665 45.6706 236.665C44.8726 236.665 44.1926 236.952 43.6304 237.524C43.0683 238.096 42.7872 238.781 42.7872 239.579C42.7872 240.377 43.0698 241.057 43.6351 241.619C44.2004 242.182 44.882 242.463 45.68 242.463Z" fill="white"/>
</g>
</svg>
