<svg width="1078" height="614" viewBox="0 0 1078 614" fill="none" xmlns="http://www.w3.org/2000/svg">
<text fill="white" xml:space="preserve" style="white-space: pre" font-family="Inter" font-size="48" letter-spacing="0em"><tspan x="0" y="49.9545">From the world&#x2019;s best chefs</tspan></text>
<text fill="url(#paint0_linear_8_28)" xml:space="preserve" style="white-space: pre" font-family="Inter" font-size="32" letter-spacing="0em"><tspan x="28" y="216.087">dkawopdk-alwdlawd-23123</tspan></text>
<text fill="#8E8E8E" xml:space="preserve" style="white-space: pre" font-family="Inter" font-size="32" letter-spacing="0em"><tspan x="28" y="99.0872">Made with love on our home planet&#10;</tspan><tspan x="28" y="138.087">with exotic materials only found here!&#10;</tspan><tspan x="28" y="177.087">Come and taste it now at these coordinates : </tspan></text>
<path d="M874.6 532.525C874.015 531.939 873.065 531.939 872.479 532.525L862.933 542.071C862.347 542.657 862.347 543.606 862.933 544.192C863.519 544.778 864.469 544.778 865.054 544.192L873.54 535.707L882.025 544.192C882.611 544.778 883.561 544.778 884.146 544.192C884.732 543.606 884.732 542.657 884.146 542.071L874.6 532.525ZM572.926 90.2776C584.667 90.2776 603.205 89.8344 622.602 93.2327C641.999 96.6311 662.072 103.844 676.942 119.024C691.773 134.163 701.615 157.42 700.205 193.306C698.793 229.236 686.098 277.755 655.887 343.228L658.611 344.485C688.903 278.835 701.769 229.907 703.202 193.424C704.638 156.898 694.612 132.775 679.085 116.925C663.599 101.116 642.828 93.7307 623.12 90.2778C603.411 86.8248 584.583 87.2776 572.926 87.2776L572.926 90.2776ZM655.887 343.228C625.509 409.065 623.821 463.807 638.578 506.447C653.33 549.071 684.452 579.42 719.356 596.593C754.23 613.751 793.023 617.823 823.205 607.697C838.313 602.629 851.289 593.991 860.486 581.631C869.688 569.265 875.04 553.262 875.04 533.585L872.04 533.585C872.04 552.697 866.851 568.053 858.08 579.84C849.304 591.635 836.874 599.948 822.251 604.853C792.972 614.675 755.004 610.789 720.68 593.901C686.386 577.028 655.872 547.244 641.413 505.466C626.96 463.703 628.487 409.772 658.611 344.485L655.887 343.228Z" fill="#878787"/>
<circle cx="875.003" cy="328.877" r="147.567" transform="rotate(31.5857 875.003 328.877)" fill="url(#paint1_linear_8_28)"/>
<defs>
<linearGradient id="paint0_linear_8_28" x1="254.247" y1="179.006" x2="504.404" y2="195.25" gradientUnits="userSpaceOnUse">
<stop stop-color="#A635FF"/>
<stop offset="0.572917" stop-color="#00D488"/>
</linearGradient>
<linearGradient id="paint1_linear_8_28" x1="875.003" y1="181.311" x2="865.26" y2="462.329" gradientUnits="userSpaceOnUse">
<stop stop-color="#5AFF88"/>
<stop offset="0.833333" stop-color="#E233FF" stop-opacity="0"/>
</linearGradient>
</defs>
</svg>
